<svg xmlns="http://www.w3.org/2000/svg" viewBox="0 0 1920 1080" role="img" aria-label="botanical morning ritual"><defs><linearGradient id="bg" x1="0" y1="0" x2="1" y2="1"><stop stop-color="#74816e"/><stop offset="1" stop-color="#30312b"/></linearGradient><filter id="blur"><feGaussianBlur stdDeviation="22"/></filter></defs><rect width="1920" height="1080" fill="url(#bg)"/><circle cx="1460" cy="250" r="300" fill="#d8b8a1" opacity=".7" filter="url(#blur)"/><circle cx="1650" cy="760" r="250" fill="#f4ebdf" opacity=".48" filter="url(#blur)"/><g transform="translate(1180 180) rotate(-10)"><ellipse cx="290" cy="590" rx="390" ry="76" fill="#25251f" opacity=".22"/><rect x="210" y="130" width="180" height="460" rx="28" fill="#f4ebdf"/><rect x="245" y="50" width="110" height="110" rx="18" fill="#35362f"/><rect x="230" y="245" width="140" height="120" rx="10" fill="#74816e" opacity=".92"/><path d="M40 530c120-210 188-260 275-360M490 600c-50-210-70-360-180-520" stroke="#e8d9bf" stroke-width="26" fill="none" stroke-linecap="round"/><path d="M70 350c90 5 120-55 128-107M430 335c-80-5-118-50-122-112" stroke="#a8bf95" stroke-width="38" fill="none" stroke-linecap="round"/></g></svg>